<svg xmlns="http://www.w3.org/2000/svg" viewBox="0 0 660.16 94.9"><defs><style>.cls-1{fill:#f30617;}.cls-2{fill:#898d8d;}</style></defs><title>Asset 1</title><g id="Layer_2" data-name="Layer 2"><g id="Layer_1-2" data-name="Layer 1"><path class="cls-1" d="M535.19,19.16V17.77h.71a7.37,7.37,0,0,0,5.63,2.06c3.15,0,5.34-1.3,5.34-4.42s-2.39-3.63-5.37-4.42c-3.69-1-5.81-2.15-5.81-5.51,0-3,2.18-5.25,6.22-5.25a8.7,8.7,0,0,1,5.51,1.62V3.17h-.74a6.44,6.44,0,0,0-4.75-1.68c-3.36,0-4.75,1.68-4.75,3.86,0,2.83,1.95,3.48,4.75,4.22,4.16,1.09,6.46,2.12,6.46,5.72,0,4-2.83,5.81-6.84,5.81a9.83,9.83,0,0,1-6.37-1.95"/><path class="cls-1" d="M553.3,8.07A10.93,10.93,0,0,1,560,5.45c2.15,0,4,.88,4,4.1V21h-1.47V9.72c0-2.45-1.33-3-3.07-3-2.27,0-4.45,1.27-6.19,2.6V21h-1.48V.34h.53c.83,0,.94.15.94,1.42Z"/><path class="cls-1" d="M577.06,17.48V13.7a17.73,17.73,0,0,0-4-.47c-2.71,0-4.75,1-4.75,3.33S570,20,572,20a6,6,0,0,0,5-2.51m0,1.41a6.55,6.55,0,0,1-5.25,2.24c-2.86,0-5-1.56-5-4.45,0-3.1,2.57-4.51,6.16-4.51a16,16,0,0,1,4,.47V9.87c0-2.39-1.53-3.24-3.78-3.24A7.56,7.56,0,0,0,568.51,8h-.62V6.77a10.91,10.91,0,0,1,5.46-1.33c3.13,0,5.19,1.15,5.19,4.34V21h-.41c-.85,0-1.06-.26-1.06-1.5Z"/><path class="cls-1" d="M584.14,9.81v8a6,6,0,0,0,4.87,2c2.54,0,5.37-1.33,5.37-6.63s-2.48-6.55-4.63-6.55c-2.48,0-4.27,1.56-5.6,3.15m0-1.45A7.65,7.65,0,0,1,590,5.44c2.92,0,5.9,1.74,5.9,7.61,0,6.07-3.42,8-6.61,8a7.11,7.11,0,0,1-5.13-1.8v6.55h-1.48V5.62h.68c.65,0,.8.18.8,1.53Z"/><path class="cls-1" d="M599.06,21V5.62h.47c.89,0,1,.18,1,1.59V21Zm-.24-18.72a1,1,0,1,1,2,0,1,1,0,1,1-2,0"/><path class="cls-1" d="M606.34,8.07a10.93,10.93,0,0,1,6.75-2.62c2.15,0,4,.88,4,4.1V21H615.6V9.72c0-2.45-1.33-3-3.07-3-2.27,0-4.45,1.27-6.19,2.6V21h-1.48V5.62h.68c.65,0,.8.18.8,1.53Z"/><path class="cls-1" d="M631.76,16.62V8.72a6.12,6.12,0,0,0-4.84-2.12c-2.54,0-5.37,1.33-5.37,6.66,0,5,2.42,6.46,4.72,6.46a6.7,6.7,0,0,0,5.48-3.09m1.5,4.19c0,3.39-2.95,5.07-6.52,5.07a11.51,11.51,0,0,1-5.87-1.36V23.37h.59a8.66,8.66,0,0,0,5.1,1.36c2.86,0,5.19-1.09,5.19-4V18.15a7.34,7.34,0,0,1-5.69,2.71c-3,0-6-1.95-6-7.55,0-5.81,3.42-7.87,6.61-7.87a6.77,6.77,0,0,1,5.1,1.92c.09-.91.24-1.74,1-1.74h.47Z"/><path class="cls-1" d="M534.87,36.73h2V32.45h1.48v4.28h4.1v1.12h-4.1V48.58c0,1.86.85,2.42,2.65,2.42h1.77v1a13.74,13.74,0,0,1-2.27.18c-2.36,0-3.63-1-3.63-3.45V37.85h-2Z"/><path class="cls-1" d="M546.87,39.18a10.93,10.93,0,0,1,6.75-2.62c2.15,0,4,.88,4,4.1V52.09h-1.47V40.83c0-2.45-1.33-3-3.07-3-2.27,0-4.45,1.27-6.19,2.6V52.09h-1.48V31.45h.53c.83,0,.94.15.94,1.42Z"/><path class="cls-1" d="M562.08,43.34H572.2c-.09-4.1-2-5.66-4.84-5.66s-4.92,1.89-5.28,5.66M567.89,51a6.55,6.55,0,0,0,4.78-1.59h.65V50.5a8.58,8.58,0,0,1-5.57,1.71c-4.63,0-7.2-3-7.2-7.76s2.89-7.9,6.81-7.9,6.31,2.18,6.31,7.2c0,.3,0,.65,0,.71H562.05c0,4.31,2,6.55,5.84,6.55"/><path class="cls-1" d="M582,36.73h2V35.2c0-2.68,1.53-3.83,3.6-3.83a8.83,8.83,0,0,1,1.89.18v1H588c-1.59,0-2.48.59-2.48,2.71v1.45h3.72v1.12h-3.72V52.09h-1.48V37.85h-2Z"/><path class="cls-1" d="M602.18,49.85a11,11,0,0,1-6.4,2.42c-2.36,0-4.16-1-4.16-4V36.73h1.5V48.11c0,2.36,1.24,2.95,2.86,2.95a10.85,10.85,0,0,0,6.19-2.45V36.73h1.48V52.09H603c-.65,0-.8-.21-.8-1.65Z"/><path class="cls-1" d="M606.19,36.73h2V32.45h1.48v4.28h4.1v1.12h-4.1V48.58c0,1.86.85,2.42,2.65,2.42h1.77v1a13.74,13.74,0,0,1-2.27.18c-2.36,0-3.63-1-3.63-3.45V37.85h-2Z"/><path class="cls-1" d="M627.13,49.85a11,11,0,0,1-6.4,2.42c-2.36,0-4.16-1-4.16-4V36.73h1.5V48.11c0,2.36,1.24,2.95,2.86,2.95a10.85,10.85,0,0,0,6.19-2.45V36.73h1.48V52.09h-.68c-.65,0-.8-.21-.8-1.65Z"/><path class="cls-1" d="M634.38,39.38a6.72,6.72,0,0,1,5-2.77,2.19,2.19,0,0,1,.71.09v1.21s-.38,0-.65,0c-2.24,0-3.86,1.45-5.1,2.89V52.09h-1.48V36.73h.68c.65,0,.8.18.8,1.68Z"/><path class="cls-1" d="M642.52,43.34h10.11c-.09-4.1-2-5.66-4.84-5.66s-4.92,1.89-5.28,5.66M648.33,51a6.55,6.55,0,0,0,4.78-1.59h.65V50.5a8.58,8.58,0,0,1-5.57,1.71c-4.63,0-7.2-3-7.2-7.76s2.89-7.9,6.81-7.9,6.31,2.18,6.31,7.2c0,.3,0,.65,0,.71H642.49c0,4.31,2,6.55,5.84,6.55"/><path class="cls-1" d="M548.28,75.5c0-4.19-2.15-6.69-5.66-6.69S537,71.32,537,75.5s2.15,6.66,5.63,6.66,5.66-2.45,5.66-6.66m-12.8,0c0-4.84,2.89-7.84,7.13-7.84s7.17,3,7.17,7.84-2.86,7.81-7.17,7.81-7.13-2.95-7.13-7.81"/><path class="cls-1" d="M551.11,67.84h2V66.3c0-2.69,1.53-3.83,3.6-3.83a8.73,8.73,0,0,1,1.89.18v1H557.1c-1.59,0-2.48.59-2.48,2.71v1.44h3.72V69h-3.72V83.2h-1.47V69h-2Z"/><path class="cls-1" d="M566.86,81.87V80.66h.59a6.16,6.16,0,0,0,4.31,1.5c2.83,0,4.19-1.18,4.19-3.3,0-1.8-1-2.54-4.13-3-2.95-.47-4.81-1.5-4.81-4.1s2.09-4.07,5.16-4.07a7.8,7.8,0,0,1,4.45,1.15V70H576a5.47,5.47,0,0,0-3.83-1.21c-2.51,0-3.8.94-3.8,2.8s1,2.45,4,2.95c3.21.5,5,1.48,5,4.19s-1.74,4.57-5.57,4.57a7.85,7.85,0,0,1-5-1.44"/><path class="cls-1" d="M590.95,81a11,11,0,0,1-6.4,2.42c-2.36,0-4.16-1-4.16-4V67.84h1.5V79.22c0,2.36,1.24,2.95,2.86,2.95a10.84,10.84,0,0,0,6.19-2.45V67.84h1.48V83.2h-.68c-.65,0-.8-.2-.8-1.65Z"/><path class="cls-1" d="M598.2,70.49a6.72,6.72,0,0,1,5-2.77,2.17,2.17,0,0,1,.71.09V69s-.38,0-.65,0c-2.24,0-3.86,1.44-5.1,2.89V83.2h-1.48V67.84h.68c.65,0,.8.18.8,1.68Z"/><path class="cls-1" d="M616.84,78.84v-7.9A6.12,6.12,0,0,0,612,68.81c-2.53,0-5.37,1.33-5.37,6.66,0,5,2.42,6.46,4.72,6.46a6.7,6.7,0,0,0,5.48-3.1m1.5,4.19c0,3.39-2.95,5.07-6.52,5.07A11.52,11.52,0,0,1,606,86.74V85.59h.59a8.66,8.66,0,0,0,5.1,1.36c2.86,0,5.19-1.09,5.19-4V80.37a7.34,7.34,0,0,1-5.69,2.71c-3,0-6-1.95-6-7.55,0-5.81,3.42-7.87,6.61-7.87a6.77,6.77,0,0,1,5.1,1.92c.09-.91.24-1.74,1-1.74h.47Z"/><path class="cls-1" d="M623,74.44h10.11c-.09-4.1-2-5.66-4.84-5.66s-4.92,1.89-5.28,5.66m5.81,7.67a6.55,6.55,0,0,0,4.78-1.59h.65v1.09a8.58,8.58,0,0,1-5.57,1.71c-4.63,0-7.2-3-7.2-7.76s2.89-7.9,6.81-7.9,6.31,2.18,6.31,7.2c0,.29,0,.65,0,.71H622.94c0,4.31,2,6.55,5.84,6.55"/><path class="cls-1" d="M639.07,70.49a6.72,6.72,0,0,1,5-2.77,2.17,2.17,0,0,1,.71.09V69s-.38,0-.65,0c-2.24,0-3.86,1.44-5.1,2.89V83.2H637.6V67.84h.68c.65,0,.8.18.8,1.68Z"/><polygon class="cls-1" points="658.83 67.84 653.64 80.4 653.61 80.4 648.13 67.84 646.77 67.84 646.77 68.28 652.9 82.14 650.57 87.5 650.57 87.98 651.87 87.98 660.15 68.28 660.15 67.84 658.83 67.84"/><rect class="cls-2" x="503.09" width="0.99" height="84.3"/><path class="cls-1" d="M.41,44.1H42.95c1.17,0,1.95.39,1.95,1.17h.78V37.85H44.9c0,1.17-2.73,2.73-7.41,2.73H19.14s-2,0-2.73-1.17c-.78-.39-.78-2-.78-2V25.36s0-2,.78-2.73,3.12-1.18,3.12-1.18H32c2.73,0,3.9,2,3.9,2.74h.78V18.34c-1.56,0-2.34.78-5.07.78H20.31A11.63,11.63,0,0,1,16.8,18a6.1,6.1,0,0,1-1.17-2.35V7.41A6.76,6.76,0,0,1,16.8,4.68c.79-.78,2.74-.39,2.74-.39H38.65C42.95,4.29,44.9,7.8,44.9,9h.78V1.16s0-.78-3.12-.78H.41v.78c1.56,0,2.34.39,2.34,2,0,0,.78,11.32.78,18.33,0,7.81-.78,19.91-.78,19.91,0,1.17-.78,2-2.34,2Z"/><path class="cls-1" d="M94.07,5.07a15.59,15.59,0,0,1,2.34-.78h10.93c1.56,0,5.86,1.56,5.86,2.73H114V0S97.58.77,87,.77,60.12,0,60.12,0V7h.78c0-1.17,4.29-2.73,5.85-2.73H77.29a5.65,5.65,0,0,1,1.56.78A10.64,10.64,0,0,1,80.41,7.8s.39,9.37.39,15.61V39c0,2.35-1.56,4.3-3.12,4.3v.78H95.24v-.78c-1.56,0-3.12-2.35-3.12-4.3V23c.38-5.86.78-15.62.78-15.62a6,6,0,0,1,1.17-2.34"/><path class="cls-1" d="M146.37,19.12V8.19c0-1.17.39-7,1.56-7V.39h-16v.78c1.56,0,2,5.86,2,7V38.25c0,1.17-.39,5.07-2,5.07v.78h16v-.78c-1.17,0-1.56-3.9-1.56-5.07v-14A133.76,133.76,0,0,1,160,23c6.24,0,15.61,1.17,15.61,1.17v14c0,1.17-.39,5.07-2,5.07v.78h16v-.78c-1.17,0-1.56-3.9-1.56-5.07V8.19c0-1.17.39-7,1.56-7V.39h-16v.78c1.56,0,2,5.86,2,7V19.12s-9.37,1.17-15.22,1.17a133.49,133.49,0,0,1-14-1.17"/><path class="cls-1" d="M233.39,7.8c0-1.56.39-6.64,2.34-6.64V.39h-16v.78c1.95,0,2.34,5.08,2.34,6.64V37.46c0,1.56-.39,5.86-2.34,5.86v.78h16v-.78c-2,0-2.34-4.3-2.34-5.86Z"/><path class="cls-1" d="M311.45,0a4.12,4.12,0,0,1-1.56.38c-6.63,1.17-7-.38-17.56-.38-18,0-31.22,8.19-31.22,22.24,0,15.61,17.56,22.24,30.83,22.24,10.54,0,9.76-.78,15.61-.39a10.27,10.27,0,0,0,2.73.39V33.95h-.78v1.18c-.78,2.73-8.58,6.24-16.78,6.24-10.15,0-17.95-8.2-17.95-19.12s7-17.17,16-18c14-.78,18.73,3.51,19.51,4.68,0,.39.39.39.39.78h1.17Z"/><path class="cls-1" d="M469.11,7.41c0-1.56,1.17-6.25,2.34-6.25V.38h-9v.78c1.18,0,2,4.68,2,6.25V28.87L423.45.38h-3.12l-.38,37.47c0,1.56,0,5.47-1.18,5.47v.78h7.81v-.78c-1.17,0-1.56-3.9-1.56-5.47V16.39L466.38,44.1h2.73Z"/><path class="cls-1" d="M362.18,2.73c10.54,0,18.73,9.75,18.73,19.51,0,10.15-8.2,19.51-18.73,19.12-10.15,0-18-9-18-19.12,0-9.76,7.42-19.12,18-19.51m0-2.73c-17.56,0-32,7.8-32,22.24s14.44,22.24,32,22.24,31.61-7.81,31.61-22.24S379.74,0,362.18,0"/><polygon class="cls-2" points="72.94 74.76 72.94 83.19 70.29 83.19 70.29 74.76 67.56 74.76 67.56 72.69 75.66 72.69 75.66 74.76 72.94 74.76"/><polygon class="cls-2" points="83.62 83.19 83.62 78.72 79.78 78.72 79.78 83.19 77.13 83.19 77.13 72.7 79.78 72.7 79.78 76.48 83.62 76.48 83.62 72.7 86.25 72.7 86.25 83.19 83.62 83.19"/><polygon class="cls-2" points="88.59 72.7 96.35 72.7 96.35 74.73 91.21 74.73 91.21 76.63 96.01 76.63 96.01 78.62 91.21 78.62 91.21 81.12 96.81 81.12 96.81 83.19 88.59 83.19 88.59 72.7"/><polygon class="cls-2" points="295.63 72.7 295.63 74.72 290.19 74.72 290.19 76.92 295.19 76.92 295.19 78.95 290.19 78.95 290.19 83.19 287.57 83.19 287.57 72.7 295.63 72.7"/><path class="cls-2" d="M301.1,75.19l-1.29,4.43h2.67Zm2.48,8-.52-1.68H299.2l-.52,1.68h-2.8l3.9-10.49h2.73l3.87,10.49Z"/><path class="cls-2" d="M317.14,83.19s0-5.8.06-7.85L315,83.19h-2.27l-2.17-7.85c0,1.47.06,7.85.06,7.85h-2.56V72.7h3.84l2,7.34,1.95-7.34h3.84V83.19Z"/><rect class="cls-2" x="322.86" y="72.7" width="2.62" height="10.49"/><polygon class="cls-2" points="328.79 83.19 328.79 72.7 331.4 72.7 331.4 80.97 335.51 80.97 335.51 83.19 328.79 83.19"/><polygon class="cls-2" points="341.27 78.22 341.27 83.19 338.68 83.19 338.68 78.3 334.74 72.69 337.74 72.69 340 76.25 342.25 72.69 345.23 72.69 341.27 78.22"/><path class="cls-2" d="M355.63,81.27c1.95,0,2.65-1.81,2.65-3.29,0-1.9-.83-3.42-2.7-3.42s-2.6,1.89-2.6,3.3c0,1.68.76,3.41,2.65,3.41m0-8.91c3.82,0,5.32,3.15,5.32,5.65a5.24,5.24,0,0,1-5.29,5.48c-3.46,0-5.22-2.72-5.22-5.6,0-2.39,1.4-5.53,5.19-5.53"/><polygon class="cls-2" points="370.92 72.7 370.92 74.72 365.48 74.72 365.48 76.92 370.49 76.92 370.49 78.95 365.48 78.95 365.48 83.19 362.86 83.19 362.86 72.7 370.92 72.7"/><path class="cls-2" d="M386.26,80.79a5.1,5.1,0,0,1-4.52,2.71c-2.78,0-5-2-5-5.58,0-3.11,2.11-5.56,5.09-5.56a5,5,0,0,1,4.43,2.72l-2.08,1a2.43,2.43,0,0,0-2.23-1.61c-1.7,0-2.59,1.58-2.59,3.33,0,2.31,1.18,3.45,2.59,3.45a2.53,2.53,0,0,0,2.28-1.56Z"/><path class="cls-2" d="M393,81.27c1.95,0,2.65-1.81,2.65-3.29,0-1.91-.83-3.42-2.69-3.42s-2.6,1.89-2.6,3.3c0,1.69.75,3.41,2.64,3.41m0-8.91c3.82,0,5.32,3.15,5.32,5.65a5.24,5.24,0,0,1-5.3,5.49c-3.46,0-5.22-2.73-5.22-5.61,0-2.39,1.4-5.53,5.19-5.53"/><path class="cls-2" d="M409.24,83.19s0-5.8.06-7.85l-2.18,7.85h-2.28l-2.18-7.85c0,1.47.06,7.85.06,7.85h-2.56V72.69H404L406,80l1.95-7.35h3.83v10.5Z"/><path class="cls-2" d="M417.57,77.81h1.72c1.19,0,2-.28,2-1.65,0-1.52-1.25-1.53-2.07-1.53h-1.68Zm2.57-5.11c2.48,0,3.79,1.17,3.79,3.58,0,2.66-2.34,3.48-4.24,3.48h-2.12v3.44h-2.63V72.69Z"/><path class="cls-2" d="M429,75.19l-1.29,4.43h2.66Zm2.49,8L431,81.51H427.1l-.52,1.68h-2.8l3.9-10.5h2.73l3.87,10.5Z"/><polygon class="cls-2" points="441.8 83.19 438.08 76.91 438.08 83.19 435.55 83.19 435.55 72.69 438.12 72.69 441.86 79.08 441.86 72.69 444.37 72.69 444.37 83.19 441.8 83.19"/><rect class="cls-2" x="447.74" y="72.7" width="2.62" height="10.49"/><polygon class="cls-2" points="453.35 72.7 461.11 72.7 461.11 74.73 455.96 74.73 455.96 76.63 460.76 76.63 460.76 78.62 455.96 78.62 455.96 81.12 461.57 81.12 461.57 83.19 453.35 83.19 453.35 72.7"/><path class="cls-2" d="M470.21,75.82a3.73,3.73,0,0,0-2.75-1.31c-1.07,0-1.56.63-1.56,1.11s.44.83,1.34,1l1.16.16c2.73.39,3.86,1.22,3.86,3,0,2.22-1.77,3.66-4.77,3.66a5.63,5.63,0,0,1-4.78-2.13l2-1.26a4,4,0,0,0,3,1.33c.77,0,1.93-.35,1.93-1.22s-.9-1-1.83-1.07l-1.21-.17c-1.84-.25-3.35-1.11-3.35-3,0-2.06,1.53-3.51,4.24-3.51a6.36,6.36,0,0,1,4.62,2Z"/><path class="cls-2" d="M2.63,77.81H4.36c1.19,0,2-.28,2-1.65s-1.25-1.53-2.06-1.53H2.63ZM5.2,72.69C7.69,72.69,9,73.87,9,76.28c0,2.66-2.33,3.48-4.23,3.48H2.63v3.43H0V72.69Z"/><path class="cls-2" d="M13.51,75.19l-1.29,4.43h2.66Zm2.48,8-.52-1.68H11.61l-.52,1.68H8.29l3.9-10.5h2.74l3.86,10.5Z"/><path class="cls-2" d="M22.46,77.5h2.17A1.38,1.38,0,0,0,26.21,76c0-1.37-1.1-1.4-1.56-1.4H22.46Zm2.33-4.8c1.56,0,4,.4,4,3.41A2.8,2.8,0,0,1,26.67,79l2.42,4.19H26.21l-2.1-3.75H22.48v3.75H19.83V72.69Z"/><polygon class="cls-2" points="34.85 74.76 34.85 83.19 32.2 83.19 32.2 74.76 29.46 74.76 29.46 72.69 37.57 72.69 37.57 74.76 34.85 74.76"/><path class="cls-2" d="M47.28,81.27c1.95,0,2.65-1.81,2.65-3.28,0-1.9-.83-3.42-2.69-3.42s-2.6,1.89-2.6,3.3c0,1.68.76,3.4,2.65,3.4m0-8.9c3.82,0,5.32,3.15,5.32,5.65a5.24,5.24,0,0,1-5.29,5.48C43.8,83.5,42,80.78,42,77.9c0-2.39,1.4-5.53,5.19-5.53"/><polygon class="cls-2" points="62.25 72.69 62.25 74.72 56.8 74.72 56.8 76.92 61.81 76.92 61.81 78.95 56.8 78.95 56.8 83.19 54.19 83.19 54.19 72.69 62.25 72.69"/><path class="cls-1" d="M168.19,74.65a.41.41,0,0,1,.44-.44c.41,0,1,.44,1.4,1.33l-.45,0c-.76,0-1.39-.36-1.39-.92m-45.89,0a.41.41,0,0,1,.44-.44c.41,0,1,.44,1.36,1.33-1.17,0-1.8-.25-1.8-.89m8.85-4.57c0-4.73.92-5.46,1.21-5.46.51,0,.57.32.57,2.13a10.84,10.84,0,0,1-1.78,5.64Zm32.22,4.67a5.5,5.5,0,0,0-1,3.23c0,2.67,1.52,5.21,4.47,5.21s4.86-2.26,4.86-5.4a6.39,6.39,0,0,0-.09-1.42,7.9,7.9,0,0,0,1.68-1.08,1.72,1.72,0,0,1,.89-.45c.28,0,.41.22.41.64V81.7c0,1,.32,1.49,1.11,1.49a1.73,1.73,0,0,0,1.53-1.11c1-2.19,2.57-5.11,3.23-6.22.16-.25.29-.44.38-.44s.19.1.19.5v5c0,1.4.64,2.32,2,2.32s2.19-1.4,3.47-3.55a.75.75,0,0,0,.09-.31.47.47,0,0,0-.5-.45c-.29,0-.45.29-1.4,1.33-.19.2-.38.48-.73.48-.12,0-.22-.15-.22-.34V74.77c0-1.49-.67-2.09-1.52-2.09a2.15,2.15,0,0,0-1.87,1.17,55,55,0,0,0-2.79,5c-.07.13-.16.32-.22.32s-.09-.09-.09-.32V74.77c0-1.17-.32-2.09-1.56-2.09s-2,.89-2.92,1.55a9.83,9.83,0,0,1-1.55,1c-.63-1.62-1.81-2.44-2.8-2.42a1.59,1.59,0,0,0-1.68,1.65,2.18,2.18,0,0,0,1.49,2.09,3.87,3.87,0,0,0,1.56.23,2.13,2.13,0,0,0,.5,0,6.18,6.18,0,0,1,0,1.11c0,1.55-.92,3.11-2.63,3.11s-2.82-1.71-2.82-3.68a5.45,5.45,0,0,1,1.17-3.58c.29-.32.51-.51.51-.81s-.22-.18-.42-.18a8.19,8.19,0,0,0-3.45,1,20.82,20.82,0,0,0-3.82,2.73c-.57-1.27-1.27-2.38-1.62-3.24-.12-.35-.22-.76-.47-.76s-.32.22-.48.66A39.53,39.53,0,0,1,152,80.36c-.06.1-.16.19-.19.19s-.1,0-.1-.22V74.77c0-1.49-.6-2.09-1.43-2.09a2.11,2.11,0,0,0-1.87,1.17c-1,1.59-2.32,3.91-2.92,5.05-.1.2-.19.25-.22.25s-.06-.13-.06-.32V74.77c0-1.49-.61-2.09-1.43-2.09a2.08,2.08,0,0,0-1.91,1.17c-1.33,2.26-3.55,5.72-4,6.29a.5.5,0,0,1-.19.19c-.06,0-.1-.06-.1-.22V74.77c0-1.49-.6-2.09-1.43-2.09-1.14,0-1.77,1-2.19,1.71-.57.92-1.33,2.16-1.93,3.3a5.49,5.49,0,0,1-.89,1.46c-.06,0-.06-.29-.06-.82V74.08a11.84,11.84,0,0,0,3.24-7.94c0-1.72-.76-2.67-1.93-2.67-2.19,0-3.87,3.43-3.87,7.49v3.3a8.77,8.77,0,0,1-3.15,1.18c-.6-1.77-1.87-2.7-2.89-2.67a1.6,1.6,0,0,0-1.68,1.65c0,1.69,1.65,2.39,3.11,2.39h.41a5.21,5.21,0,0,1,.06,1c0,1.55-.92,3.11-2.63,3.11S119,79.22,119,77.26a5.46,5.46,0,0,1,1.17-3.58,1.68,1.68,0,0,0,.51-.81c0-.15-.22-.18-.41-.18-1.21,0-3.87,1.62-7,4.8a69.38,69.38,0,0,1-.6-7.43,27.47,27.47,0,0,1,.66-5.65,7,7,0,0,0,.1-.85c0-.25-.13-.38-.48-.38-2.57,0-8.22,4.09-8.22,10.22,0,4.35,1.59,6.44,4.35,9.14-1.68,2.7-3,5.9-3,8.77,0,2.06.48,3.62,2,3.62,3.17,0,5.55-6.6,5.55-11.49,0-1.46-.06-2.92-.18-4.38A20.88,20.88,0,0,1,116.8,76a7.53,7.53,0,0,0-.31,2c0,2.67,1.52,5.21,4.47,5.21,2.77,0,4.85-2.26,4.85-5.4,0-.4,0-.76-.06-1.13a8.39,8.39,0,0,0,2.83-1V82a1.05,1.05,0,0,0,1.1,1.15c.73,0,1.11-.51,1.65-1.68.45-1,1.65-3.15,2.38-4.45.58-1,.89-1.68,1.14-1.68.06,0,.13.16.13.53v5.43c0,1.46.76,1.84,1.42,1.84a1.75,1.75,0,0,0,1.46-.92c1.65-2.35,3.4-5.14,4.09-6.36.13-.21.29-.38.41-.38s.19.07.19.47V81.7c0,1,.32,1.49,1.11,1.49a1.68,1.68,0,0,0,1.49-1.11c1.05-2.19,2.6-5.08,3.27-6.22.16-.25.32-.48.41-.48s.16.16.16.57v5.39c0,1.46.76,1.84,1.43,1.84.88,0,1.46-.63,2-1.36,1-1.37,2.57-3.81,3.49-5.37a13.93,13.93,0,0,1,1,1.78,5.25,5.25,0,0,0-1.52,3.08,1.74,1.74,0,0,0,1.68,1.88,3.09,3.09,0,0,0,2.79-3.33,6.74,6.74,0,0,0-.51-2.32,11,11,0,0,1,4-2.79m-52.28,6.92a33.54,33.54,0,0,1,.48,4.63c0,3-1,6.6-2.76,6.57-.67,0-1.24-.67-1.27-1.84a15.07,15.07,0,0,1,3.55-9.36m46.34-2.16a4.21,4.21,0,0,1,.29,1.43c0,.51-.19,1-.54,1s-.5-.29-.5-.73a3.76,3.76,0,0,1,.76-1.72M112.24,64.36c0,.19-.45,1.08-1,2.67A20,20,0,0,0,110,73.85a45.67,45.67,0,0,0,.77,6.16l-1,1.37a11.47,11.47,0,0,1-2.64-8c0-5.4,3.27-9.14,5-9.14.1,0,.13,0,.13.12"/><path class="cls-1" d="M261.27,74.65a.41.41,0,0,1,.44-.44c.4,0,1,.44,1.39,1.33l-.44,0c-.76,0-1.39-.36-1.39-.92m-45.9,0a.41.41,0,0,1,.45-.44c.41,0,1,.44,1.36,1.33-1.17,0-1.81-.25-1.81-.89m8.86-4.57c0-4.73.91-5.46,1.21-5.46.51,0,.57.32.57,2.13a10.85,10.85,0,0,1-1.78,5.65ZM204.17,81.66a33.76,33.76,0,0,1,.48,4.63c0,3-1,6.6-2.76,6.57-.67,0-1.24-.67-1.27-1.84a15.09,15.09,0,0,1,3.55-9.36m46.34-2.16a4.11,4.11,0,0,1,.29,1.43c0,.51-.19,1-.54,1s-.51-.28-.51-.73a3.78,3.78,0,0,1,.76-1.72m-45.2-15.14c0,.2-.44,1.08-1,2.67a20,20,0,0,0-1.18,6.82,47.57,47.57,0,0,0,.77,6.16l-1,1.37a11.49,11.49,0,0,1-2.64-8c0-5.4,3.27-9.14,5-9.14.09,0,.12,0,.12.12M200,80.24a18.79,18.79,0,0,0,2.09,2.28c-1.68,2.7-3,5.9-3,8.77,0,2.06.48,3.62,2,3.62,3.17,0,5.55-6.6,5.55-11.49,0-1.46-.06-2.92-.19-4.38A20.79,20.79,0,0,1,209.89,76a7.43,7.43,0,0,0-.32,2c0,2.67,1.53,5.21,4.48,5.21,2.76,0,4.85-2.25,4.85-5.4a10.76,10.76,0,0,0-.06-1.13,8.27,8.27,0,0,0,2.83-1V82a1.05,1.05,0,0,0,1.1,1.14c.74,0,1.12-.51,1.66-1.68.44-1,1.65-3.15,2.38-4.45.57-1,.88-1.68,1.14-1.68.06,0,.12.16.12.53v5.44c0,1.46.76,1.84,1.43,1.84a1.75,1.75,0,0,0,1.46-.92c1.65-2.35,3.4-5.14,4.1-6.36.12-.21.29-.38.41-.38s.19.07.19.47V81.7c0,1,.31,1.49,1.11,1.49a1.68,1.68,0,0,0,1.49-1.11c1.05-2.19,2.6-5.08,3.27-6.22.16-.25.32-.48.42-.48s.16.16.16.57v5.39c0,1.46.75,1.84,1.42,1.84.9,0,1.47-.63,2-1.36,1-1.37,2.57-3.8,3.49-5.37a15.16,15.16,0,0,1,1,1.78,5.21,5.21,0,0,0-1.52,3.08,1.74,1.74,0,0,0,1.68,1.87A3.09,3.09,0,0,0,253,79.86a6.79,6.79,0,0,0-.5-2.32,11,11,0,0,1,4-2.79,5.49,5.49,0,0,0-1,3.23c0,2.67,1.52,5.21,4.47,5.21s4.85-2.25,4.85-5.4a6.4,6.4,0,0,0-.09-1.42,7.53,7.53,0,0,0,1.68-1.08,1.71,1.71,0,0,1,.89-.45c.29,0,.42.22.42.64V81.7c0,1,.31,1.49,1.11,1.49a1.74,1.74,0,0,0,1.52-1.11c1-2.19,2.57-5.11,3.23-6.22.17-.25.29-.44.39-.44s.19.1.19.5v5c0,1.4.63,2.32,2,2.32s2.19-1.4,3.46-3.55a.77.77,0,0,0,.09-.31.47.47,0,0,0-.51-.45c-.29,0-.45.29-1.39,1.33-.19.2-.38.47-.73.47-.13,0-.22-.15-.22-.34V74.77c0-1.49-.67-2.09-1.53-2.09a2.15,2.15,0,0,0-1.87,1.17,52.46,52.46,0,0,0-2.79,5c-.06.13-.16.32-.23.32s-.09-.09-.09-.32V74.77c0-1.17-.32-2.09-1.56-2.09s-2,.89-2.92,1.56a10,10,0,0,1-1.56,1c-.63-1.62-1.81-2.44-2.79-2.41a1.6,1.6,0,0,0-1.68,1.65,2.18,2.18,0,0,0,1.49,2.09,3.9,3.9,0,0,0,1.56.23,2.1,2.1,0,0,0,.51,0,6.5,6.5,0,0,1,0,1.12c0,1.55-.92,3.11-2.64,3.11S258,79.22,258,77.25a5.46,5.46,0,0,1,1.17-3.58c.29-.32.51-.51.51-.81s-.22-.18-.41-.18a8.26,8.26,0,0,0-3.46,1A21,21,0,0,0,252,76.43c-.57-1.27-1.26-2.38-1.62-3.24-.13-.35-.22-.76-.48-.76s-.32.22-.47.66a39.48,39.48,0,0,1-4.28,7.27c-.07.1-.16.19-.19.19s-.09,0-.09-.22V74.77c0-1.49-.6-2.09-1.43-2.09a2.12,2.12,0,0,0-1.87,1.17c-1,1.59-2.32,3.91-2.92,5.05-.09.2-.18.25-.22.25s-.07-.13-.07-.32V74.77c0-1.49-.6-2.09-1.43-2.09a2.07,2.07,0,0,0-1.9,1.17c-1.34,2.26-3.56,5.72-4,6.29a.46.46,0,0,1-.19.19c-.06,0-.1-.06-.1-.22V74.77c0-1.49-.6-2.09-1.43-2.09-1.14,0-1.78,1-2.19,1.71-.57.92-1.33,2.16-1.94,3.3a5.54,5.54,0,0,1-.88,1.46c-.06,0-.06-.29-.06-.82V74.08a11.86,11.86,0,0,0,3.23-7.94c0-1.72-.76-2.67-1.94-2.67-2.19,0-3.87,3.43-3.87,7.49v3.3a8.8,8.8,0,0,1-3.15,1.17c-.6-1.77-1.87-2.7-2.88-2.67a1.6,1.6,0,0,0-1.69,1.65c0,1.69,1.65,2.39,3.11,2.39h.42a6.08,6.08,0,0,1,.06,1c0,1.55-.92,3.11-2.63,3.11s-2.82-1.71-2.82-3.68a5.47,5.47,0,0,1,1.17-3.58,1.66,1.66,0,0,0,.51-.81c0-.15-.22-.18-.41-.18-1.21,0-3.87,1.62-7,4.8a68.55,68.55,0,0,1-.6-7.43,27.28,27.28,0,0,1,.67-5.65,6.69,6.69,0,0,0,.1-.85c0-.25-.13-.38-.47-.38-2.57,0-8.22,4.09-8.22,10.22a10.63,10.63,0,0,0,1.49,5.84,4.64,4.64,0,0,0-.89-.06,11.74,11.74,0,0,0-2.57.38V78.9c0-1.36-.32-3.23-.89-3.87a.36.36,0,0,0-.25-.09,2.14,2.14,0,0,0-.92.31c-.38.2-.76.39-.76.51a.47.47,0,0,0,.09.28,4.73,4.73,0,0,1,1,2.45,5.18,5.18,0,0,0-3.92-1.56c-1.91,0-2.48.85-2.48,1.72,0,1.65,2.19,2.48,5,2.48a7.91,7.91,0,0,0,1.65-.22c0,.51.06,1,.06,1.33,0,.54.09,1,.44,1,.54,0,.86-1.08.91-2.63a12.41,12.41,0,0,1,2.86-.47,8.07,8.07,0,0,1,1.43.16m-6.25-.32a10.33,10.33,0,0,1-1.43.06c-1.24,0-2.15-.48-2.15-1.17,0-.44.22-.7.85-.7,1,0,1.84.7,2.73,1.81"/></g></g></svg>